<svg version="1.1" xmlns="http://www.w3.org/2000/svg" x="0" y="0" viewBox="0 0 400 124" xml:space="preserve" enable-background="new 0 0 400 124"><style>.m{fill:#358ccb}.z{fill:#2f993d}</style><path class="m" d="M63.5 119.4C31.8 119.4 6.1 93.6 6.1 62c0-3 2.5-5.5 5.5-5.5s5.5 2.5 5.5 5.5c0 25.6 20.8 46.4 46.4 46.4 25.6 0 46.4-20.8 46.4-46.4 0-25.6-20.8-46.4-46.4-46.4-3 0-5.5-2.5-5.5-5.5s2.5-5.5 5.5-5.5c31.7 0 57.4 25.8 57.4 57.4.1 31.6-25.7 57.4-57.4 57.4z"/><path class="m" d="M63.5 99.5C42.8 99.5 26 82.7 26 61.9s16.9-37.6 37.6-37.6a5.8 5.8 0 0 1 0 11.6c-14.4 0-26 11.7-26 26s11.7 26 26 26c14.4 0 26-11.7 26-26a5.8 5.8 0 0 1 11.6 0 37.7 37.7 0 0 1-37.7 37.6z"/><path class="z" d="M63.5 45.6a16.3 16.3 0 1 0 16.3 16.3c.1-9-7.3-16.3-16.3-16.3zM162.9 60.9c-1.7-.2-3.4-.4-5.2-.7-3.6-.6-5.8-2.4-5.8-5 0-4.2 3.5-5.7 6.8-5.7 3.6 0 7.4 1.2 10.9 3.4l.7.5 4.8-7.2-.7-.5c-4.9-3.3-10.1-4.9-15.4-4.9-9.7 0-15.9 5.6-15.9 14.3 0 7.4 5 12.7 13 13.8 1 .1 1.9.3 2.7.4 1.1.2 2.2.3 3.4.5 3.4.4 5.3 2.3 5.3 5.4 0 3.4-3.2 5.5-8.3 5.5-4.5 0-9-1.6-12.5-4.4l-.6-.5-5.7 6.5.7.6c4.9 4.4 11.1 6.6 18.2 6.6 10.5 0 17.1-5.5 17.1-14.3-.1-5.9-3.6-13.1-13.5-14.3zM209.6 64.1c3.8-2.2 5.6-5.4 5.6-9.8 0-8.2-5.6-13.2-14.5-13.2H182v47.8h20.3c7.8 0 13.7-6 13.7-14-.1-4.1-2.1-8.8-6.4-10.8zm-18.9 4.4h9.9c4.9 0 6.6 3.1 6.6 6.1 0 2.9-1.7 6.1-6.6 6.1h-9.9V68.5zm9.2-8h-9.2V49h9.2c4.9 0 6.6 3 6.6 5.7 0 3.7-2.5 5.8-6.6 5.8z"/><path class="z" d="M230.2 41.1 221.4 41.1 221.4 88.9 252.6 88.9 252.6 80.6 230.2 80.6z"/><path class="z" d="M281.2 74.8c-1.8 3.8-4.5 5.8-8 5.8s-5.5-1.9-6.4-3c-1.6-2.1-2.1-3.2-2.1-12.5s.5-10.5 2.1-12.5c.9-1.1 2.9-3 6.4-3 4.2 0 7 3 8 6.1l.2.6h9.1l-.2-1c-1.6-8.6-8.5-14.4-17-14.4-7.7 0-12.9 4.5-15.2 8.7-1.6 2.9-2.1 4.4-2.1 15.6s.5 12.6 2.1 15.6c2.3 4.2 7.5 8.7 15.2 8.7 8.7 0 15.2-5.4 17-14l.2-1h-9l-.3.3zM308.7 54c-4.4 0-7.9 1.5-10.6 4.5-2.9 3.2-3.8 6.4-3.8 13.1 0 6.8.9 10 3.8 13.2 2.7 3 6.3 4.5 10.6 4.5 4.4 0 7.9-1.5 10.6-4.5 2.9-3.2 3.8-6.4 3.8-13.2 0-6.8-.9-10-3.8-13.1-2.7-3-6.3-4.5-10.6-4.5zm6 17.7c0 4.7-.4 5.8-1.5 7.3-.9 1.2-2.7 2-4.6 2-1.9 0-3.7-.8-4.6-2-1.1-1.5-1.5-2.5-1.5-7.3 0-4.7.4-5.8 1.5-7.3.9-1.2 2.7-2 4.6-2 1.9 0 3.8.8 4.6 2 1.1 1.5 1.5 2.5 1.5 7.3zM351.8 56.7c-2.4-1.8-4.8-2.7-7.4-2.7-3.1 0-5.7.9-7.8 2.7v-2.3h-8.3V89h8.3V68.3c0-4.4 2.9-6 5.5-6 1.4 0 2.4.4 3.8 1.4l.7.5 5.9-7-.7-.5zM379.5 68.7c0-8.4-6.2-14.7-14.4-14.7-7 0-14.4 4.7-14.4 17.8 0 15.3 9.7 17.6 15.4 17.6 5 0 9.3-1.9 12.5-5.6l.6-.7-6.1-5.2-.6.6a9.52 9.52 0 0 1-6.6 2.9c-4.1 0-6.6-2.4-6.9-6.4h20.4v-6.3zm-14.4-6.8c3.4 0 5.6 2.2 6 5.9h-12c.4-3.7 2.6-5.9 6-5.9z"/><path fill="none" d="M-50.3-44.2H436.4V171.1H-50.3z"/><path class="z" d="M391.4 48.8c0 4.3-3.3 7.7-7.7 7.7s-7.7-3.4-7.7-7.7c0-4.3 3.3-7.7 7.7-7.7 4.3 0 7.7 3.4 7.7 7.7zm-14.2 0c0 3.7 2.7 6.6 6.5 6.6 3.7 0 6.5-2.9 6.5-6.6 0-3.7-2.8-6.6-6.5-6.6s-6.5 2.9-6.5 6.6zm4.8 4.4h-1.1v-8.9h3.4c2 0 2.9.9 2.9 2.5s-1 2.3-2.2 2.5l2.6 3.9h-1.3l-2.5-3.9H382v3.9zm1.4-4.9c1.3 0 2.7 0 2.7-1.5 0-1.2-1-1.5-2.1-1.5h-2v3.1h1.4z"/></svg>